<svg width="13" height="17" viewBox="0 0 13 17" fill="none" xmlns="http://www.w3.org/2000/svg">
<path d="M0.00800008 0.0079999C0.344 0.0239997 0.784 0.0399995 1.328 0.0559993C1.872 0.0719991 2.408 0.079999 2.936 0.079999C3.688 0.079999 4.408 0.0719991 5.096 0.0559993C5.784 0.0399995 6.272 0.0319996 6.56 0.0319996C8.496 0.0319996 9.944 0.472 10.904 1.352C11.864 2.232 12.344 3.368 12.344 4.76C12.344 5.336 12.248 5.944 12.056 6.584C11.864 7.208 11.528 7.792 11.048 8.336C10.584 8.864 9.944 9.296 9.128 9.632C8.312 9.968 7.28 10.136 6.032 10.136H3.728V9.656H5.792C6.928 9.656 7.792 9.44 8.384 9.008C8.992 8.576 9.4 8.008 9.608 7.304C9.832 6.6 9.944 5.84 9.944 5.024C9.944 3.504 9.64 2.368 9.032 1.616C8.44 0.863999 7.416 0.487999 5.96 0.487999C5.224 0.487999 4.744 0.624 4.52 0.896C4.296 1.168 4.184 1.72 4.184 2.552V14.456C4.184 15.032 4.24 15.464 4.352 15.752C4.48 16.04 4.72 16.232 5.072 16.328C5.424 16.424 5.936 16.488 6.608 16.52V17C6.192 16.968 5.664 16.952 5.024 16.952C4.384 16.936 3.736 16.928 3.08 16.928C2.456 16.928 1.872 16.936 1.328 16.952C0.784 16.952 0.344 16.968 0.00800008 17V16.52C0.552 16.488 0.96 16.424 1.232 16.328C1.52 16.232 1.712 16.04 1.808 15.752C1.904 15.464 1.952 15.032 1.952 14.456V2.552C1.952 1.96 1.904 1.528 1.808 1.256C1.712 0.967999 1.52 0.776 1.232 0.68C0.96 0.567999 0.552 0.503999 0.00800008 0.487999V0.0079999Z" fill="#985D26"/>
</svg>
